<svg width="44" height="42" viewBox="0 0 44 42" fill="none" xmlns="http://www.w3.org/2000/svg">
<path d="M37.49 35.7869H30.9705V26.0409C30.9705 23.7169 30.927 20.7252 27.5798 20.7252C24.1843 20.7252 23.6647 23.2573 23.6647 25.8717V35.7863H17.1453V15.7446H23.404V18.4835H23.4916C24.1179 17.4612 25.023 16.6202 26.1104 16.0501C27.1978 15.48 28.4269 15.2021 29.6667 15.2461C36.2743 15.2461 37.4928 19.395 37.4928 24.7924L37.49 35.7869ZM9.78929 13.005C9.04103 13.0052 8.3095 12.7935 7.68727 12.3967C7.06502 12 6.58004 11.4361 6.29356 10.7762C6.00711 10.1163 5.93203 9.39022 6.07787 8.68965C6.22372 7.98908 6.58392 7.3455 7.11295 6.84035C7.64195 6.33517 8.316 5.99112 9.04987 5.85164C9.78374 5.71215 10.5444 5.78356 11.2358 6.05676C11.9271 6.33 12.5181 6.79277 12.9339 7.38662C13.3497 7.98043 13.5718 8.67865 13.5719 9.39293C13.572 9.8672 13.4742 10.3368 13.2842 10.775C13.0941 11.2132 12.8155 11.6114 12.4643 11.9468C12.1131 12.2822 11.696 12.5483 11.237 12.7299C10.778 12.9115 10.2861 13.0049 9.78929 13.005ZM13.049 35.7869H6.5228V15.7446H13.049V35.7869ZM40.7402 0.00286153H3.24679C2.39581 -0.00630575 1.57578 0.307411 0.966972 0.875076C0.358164 1.44274 0.0103859 2.21791 0 3.03024V38.9692C0.0100305 39.7821 0.357603 40.5576 0.966389 41.126C1.57518 41.6942 2.39539 42.0086 3.24679 41.9998H40.7402C41.5933 42.01 42.4159 41.6966 43.0271 41.1284C43.638 40.5602 43.988 39.7835 44 38.9692V3.02765C43.9877 2.2137 43.6374 1.43765 43.0265 0.870003C42.4152 0.302353 41.593 -0.0104675 40.7402 0.000267439" fill="#08D3FF"/>
</svg>
